<svg xmlns="http://www.w3.org/2000/svg" version="1.1" xmlns:xlink="http://www.w3.org/1999/xlink" xmlns:svgjs="http://svgjs.dev/svgjs" width="1000" height="1000" viewBox="0 0 1000 1000"><rect width="1000" height="1000" fill="#000000"></rect><g transform="matrix(0.7,0,0,0.7,149.84897959183672,150.19913061224486)"><svg viewBox="0 0 343 343" data-background-color="#0074d9" preserveAspectRatio="xMidYMid meet" height="999" width="1000" xmlns="http://www.w3.org/2000/svg" xmlns:xlink="http://www.w3.org/1999/xlink"><g id="tight-bounds" transform="matrix(1,0,0,1,0.07400000000001228,0.07400000000001228)"><svg viewBox="0 0 342.8515585177538 342.8515585177538" height="342.8515585177538" width="342.8515585177538"><g><svg></svg></g><g><svg viewBox="0 0 342.8515585177538 342.8515585177538" height="342.8515585177538" width="342.8515585177538"><g><path d="M0 171.426c0-94.676 76.75-171.426 171.426-171.426 94.676 0 171.426 76.75 171.426 171.426 0 94.676-76.75 171.426-171.426 171.426-94.676 0-171.426-76.75-171.426-171.426zM171.426 339.138c92.625 0 167.712-75.087 167.712-167.712 0-92.625-75.087-167.712-167.712-167.712-92.625 0-167.712 75.087-167.712 167.712 0 92.625 75.087 167.712 167.712 167.712z" data-fill-palette-color="tertiary" fill="#ffffff" stroke="transparent"></path><ellipse rx="164.56874808852183" ry="164.56874808852183" cx="171.4257792588769" cy="171.4257792588769" fill="#ffffff" stroke="transparent" stroke-width="0" fill-opacity="1" data-fill-palette-color="tertiary"></ellipse></g><g transform="matrix(1,0,0,1,64.84655864529836,81.62862719384684)"><svg viewBox="0 0 213.15844122715708 179.59430413006012" height="179.59430413006012" width="213.15844122715708"><g><svg viewBox="0 0 213.15844122715708 179.59430413006012" height="179.59430413006012" width="213.15844122715708"><g><svg viewBox="0 0 213.15844122715708 179.59430413006012" height="179.59430413006012" width="213.15844122715708"><g transform="matrix(1,0,0,1,0,108.27924344155511)"><svg viewBox="0 0 213.15844122715708 71.31506068850501" height="71.31506068850501" width="213.15844122715708"><g id="textblocktransform"><svg viewBox="0 0 213.15844122715708 71.31506068850501" height="71.31506068850501" width="213.15844122715708" id="textblock"><g><svg viewBox="0 0 213.15844122715708 41.18093143750811" height="41.18093143750811" width="213.15844122715708"><g transform="matrix(1,0,0,1,0,0)"><svg width="213.15844122715708" viewBox="4.25 -35.599998474121094 186.5800018310547 36.04999923706055" height="41.18093143750811" data-palette-color="#0093fb"><path d="M7.35-33.7L7.35 0 4.25 0 4.25-33.7 7.35-33.7ZM34.55-17.7L34.55 0 31.5 0 31.5-16.75Q31.5-19.7 30-21.25 28.5-22.8 26.05-22.8L26.05-22.8Q22.95-22.8 20.7-20.43 18.45-18.05 18.45-14L18.45-14 18.45 0 15.4 0 15.4-25.35 18.45-25.35 18.45-21Q20.8-25.75 26.5-25.75L26.5-25.75Q30.15-25.75 32.35-23.5 34.55-21.25 34.55-17.7L34.55-17.7ZM53.05-25.35L53.05-22.75 47.25-22.75 47.25 0 44.2 0 44.2-22.75 39.55-22.75 39.55-25.35 44.2-25.35 44.2-28.05Q44.2-31.5 46-33.55 47.8-35.6 51.05-35.6L51.05-35.6Q52-35.6 53.1-35.3L53.1-35.3 53.1-32.3Q52.05-32.7 50.9-32.7L50.9-32.7Q49.4-32.7 48.32-31.53 47.25-30.35 47.25-28L47.25-28 47.25-25.35 53.05-25.35ZM80.09-12.55L80.09-12.55Q80.09-6.9 76.92-3.23 73.74 0.45 68.19 0.45L68.19 0.45Q62.84 0.45 59.69-3.25 56.54-6.95 56.54-12.55L56.54-12.55Q56.54-18.1 59.79-21.9 63.04-25.7 68.19-25.7L68.19-25.7Q73.84-25.7 76.97-21.98 80.09-18.25 80.09-12.55ZM59.74-12.55L59.74-12.55Q59.74-8.4 62.07-5.43 64.39-2.45 68.19-2.45L68.19-2.45Q72.34-2.45 74.62-5.38 76.89-8.3 76.89-12.55L76.89-12.55Q76.89-16.95 74.74-19.88 72.59-22.8 68.19-22.8L68.19-22.8Q64.24-22.8 61.99-19.8 59.74-16.8 59.74-12.55ZM94.99-12.8L94.99-12.8 89.44-12.8 89.44 0 86.34 0 86.34-33.7 94.44-33.7Q100.34-33.7 103.72-30.73 107.09-27.75 107.09-22.9L107.09-22.9Q107.09-18.7 103.82-15.75 100.54-12.8 94.99-12.8ZM94.79-30.95L94.79-30.95 89.44-30.95 89.44-15.55 95.34-15.55Q99.29-15.55 101.62-17.65 103.94-19.75 103.94-22.9L103.94-22.9Q103.94-26.6 101.54-28.78 99.14-30.95 94.79-30.95ZM135.14-12.55L135.14-12.55Q135.14-6.9 131.96-3.23 128.79 0.45 123.24 0.45L123.24 0.45Q117.89 0.45 114.74-3.25 111.59-6.95 111.59-12.55L111.59-12.55Q111.59-18.1 114.84-21.9 118.09-25.7 123.24-25.7L123.24-25.7Q128.89-25.7 132.01-21.98 135.14-18.25 135.14-12.55ZM114.79-12.55L114.79-12.55Q114.79-8.4 117.11-5.43 119.44-2.45 123.24-2.45L123.24-2.45Q127.39-2.45 129.66-5.38 131.94-8.3 131.94-12.55L131.94-12.55Q131.94-16.95 129.79-19.88 127.64-22.8 123.24-22.8L123.24-22.8Q119.29-22.8 117.04-19.8 114.79-16.8 114.79-12.55ZM144.44-25.35L144.44 0 141.39 0 141.39-25.35 144.44-25.35ZM144.41-34.98Q145.04-34.35 145.04-33.45 145.04-32.55 144.41-31.95 143.79-31.35 142.89-31.35 141.99-31.35 141.39-31.95 140.79-32.55 140.79-33.45 140.79-34.35 141.39-34.98 141.99-35.6 142.89-35.6 143.79-35.6 144.41-34.98ZM171.38-17.7L171.38 0 168.33 0 168.33-16.75Q168.33-19.7 166.83-21.25 165.33-22.8 162.88-22.8L162.88-22.8Q159.78-22.8 157.53-20.43 155.28-18.05 155.28-14L155.28-14 155.28 0 152.23 0 152.23-25.35 155.28-25.35 155.28-21Q157.63-25.75 163.33-25.75L163.33-25.75Q166.98-25.75 169.18-23.5 171.38-21.25 171.38-17.7L171.38-17.7ZM190.83-3.8L190.83-0.7Q189.38 0.25 187.48 0.25L187.48 0.25Q180.28 0.25 180.28-7.15L180.28-7.15 180.28-22.75 176.13-22.75 176.13-25.35 180.28-25.35 180.28-31.7 183.38-31.7 183.38-25.35 190.63-25.35 190.63-22.75 183.38-22.75 183.38-7Q183.38-2.65 187.43-2.65L187.43-2.65Q189.43-2.65 190.83-3.8L190.83-3.8Z" opacity="1" transform="matrix(1,0,0,1,0,0)" fill="#000000" class="wordmark-text-0" data-fill-palette-color="quaternary" id="text-0"></path></svg></g></svg></g><g transform="matrix(1,0,0,1,0,50.90276100754927)"><svg viewBox="0 0 213.15844122715708 20.41229968095575" height="20.41229968095575" width="213.15844122715708"><g transform="matrix(1,0,0,1,0,0)"><svg width="213.15844122715708" viewBox="5 -33.25 355.04998779296875 34" height="20.41229968095575" data-palette-color="#0093fb"><path d="M19.75-3L19.75 0 5 0 5-32.5 19.25-32.5 19.25-29.5 8.5-29.5 8.5-18 17.25-18 17.25-15 8.5-15 8.5-3 19.75-3ZM35.3 0L35.3 0 27.25 0 27.25-32.5 35.3-32.5Q39.2-32.5 41.23-30.65 43.25-28.8 43.25-25.5L43.25-25.5 43.25-7Q43.25-3.65 41.25-1.83 39.25 0 35.3 0ZM39.75-7L39.75-7 39.75-25.5Q39.75-27.4 38.6-28.45 37.45-29.5 35.3-29.5L35.3-29.5 30.75-29.5 30.75-3 35.3-3Q39.75-3 39.75-7ZM52-6.25L52-6.25 52-32.5 55.5-32.5 55.5-6.25Q55.5-4.35 56.33-3.3 57.15-2.25 59.35-2.25 61.55-2.25 63.4-3.95 65.25-5.65 65.25-7.25L65.25-7.25 65.25-32.5 68.75-32.5 68.75 0 67.25 0 65.95-3.2Q64.85-1.4 63.13-0.33 61.4 0.75 59.35 0.75L59.35 0.75Q52 0.75 52-6.25ZM91-6.25L91-6.25 91-9 94.5-9 94.5-6.25Q94.5-2.9 92.45-1.07 90.4 0.75 86.3 0.75 82.2 0.75 80.1-1.07 78-2.9 78-6.25L78-6.25 78-26.25Q78-29.6 80.05-31.43 82.1-33.25 86.2-33.25 90.3-33.25 92.4-31.43 94.5-29.6 94.5-26.25L94.5-26.25 94.5-21.5 91-21.5 91-26.25Q91-30.25 86.25-30.25 81.5-30.25 81.5-26.25L81.5-26.25 81.5-6.25Q81.5-2.25 86.25-2.25 91-2.25 91-6.25ZM118.75-26.25L118.75 0 117.25 0 115.95-3.2Q114.9-1.4 113.2-0.33 111.5 0.75 109.45 0.75L109.45 0.75Q102.25 0.75 102.25-6.25L102.25-6.25 102.25-11.25Q102.25-18.25 109.45-18.25L109.45-18.25 115.25-18.25 115.25-26.45Q115.25-28.25 114.1-29.25 112.95-30.25 110.7-30.25L110.7-30.25Q106.25-30.25 106.25-26.45L106.25-26.45 106.25-23.5 102.75-23.5 102.75-26.25Q102.75-29.6 104.72-31.43 106.7-33.25 110.7-33.25 114.7-33.25 116.72-31.43 118.75-29.6 118.75-26.25L118.75-26.25ZM115.25-7.1L115.25-15.25 109.45-15.25Q107.35-15.25 106.55-14.2 105.75-13.15 105.75-11.25L105.75-11.25 105.75-6.25Q105.75-4.35 106.55-3.3 107.35-2.25 109.45-2.25 111.55-2.25 113.35-3.88 115.15-5.5 115.25-7.1L115.25-7.1ZM127.5-5.75L127.5-32.5 138.5-32.5 138.5-29.5 131-29.5 131-5.55Q131-4.15 131.72-3.2 132.45-2.25 133.78-2.25 135.1-2.25 135.8-3.18 136.5-4.1 136.5-5.55L136.5-5.55 136.5-11.5 140-11.5 140-5.75Q140-2.6 138.32-0.93 136.65 0.75 133.8 0.75 130.95 0.75 129.22-0.93 127.5-2.6 127.5-5.75L127.5-5.75ZM159.25-6.25L159.25-6.25 159.25-9 162.75-9 162.75-6.25Q162.75-2.9 160.7-1.07 158.65 0.75 154.55 0.75 150.45 0.75 148.35-1.07 146.25-2.9 146.25-6.25L146.25-6.25 146.25-26.25Q146.25-29.6 148.3-31.43 150.35-33.25 154.45-33.25 158.55-33.25 160.65-31.43 162.75-29.6 162.75-26.25L162.75-26.25 162.75-15.25 149.75-15.25 149.75-6.25Q149.75-2.25 154.5-2.25 159.25-2.25 159.25-6.25ZM149.75-26.25L149.75-26.25 149.75-18.25 159.25-18.25 159.25-26.25Q159.25-30.25 154.5-30.25 149.75-30.25 149.75-26.25ZM191.5-11.6L191.5 0 188 0 188-11.65 179.75-32.5 183.45-32.5 189.75-15.75 196.05-32.5 199.75-32.5 191.5-11.6ZM222.25-26.25L222.25-26.25 222.25-6.25Q222.25-2.9 220.13-1.07 218 0.75 213.78 0.75 209.55 0.75 207.4-1.07 205.25-2.9 205.25-6.25L205.25-6.25 205.25-26.25Q205.25-29.6 207.38-31.43 209.5-33.25 213.72-33.25 217.95-33.25 220.1-31.43 222.25-29.6 222.25-26.25ZM218.75-6.25L218.75-6.25 218.75-26.25Q218.75-30.25 213.75-30.25 208.75-30.25 208.75-26.25L208.75-26.25 208.75-6.25Q208.75-2.25 213.75-2.25 218.75-2.25 218.75-6.25ZM231-6.25L231-6.25 231-32.5 234.5-32.5 234.5-6.25Q234.5-4.35 235.32-3.3 236.15-2.25 238.35-2.25 240.55-2.25 242.4-3.95 244.25-5.65 244.25-7.25L244.25-7.25 244.25-32.5 247.75-32.5 247.75 0 246.25 0 244.95-3.2Q243.85-1.4 242.13-0.33 240.4 0.75 238.35 0.75L238.35 0.75Q231 0.75 231-6.25ZM261.25-22.85L261.25 0 257.75 0 257.75-32.5 259.25-32.5 260.7-28.8Q262.3-33.25 265.8-33.25L265.8-33.25Q271.75-33.25 271.75-26.75L271.75-26.75 271.75-23.5 268.4-23.5 268.4-26.95Q268.4-30.25 265.65-30.25L265.65-30.25Q264-30.25 262.63-28.35 261.25-26.45 261.25-22.85L261.25-22.85ZM293.65-6.25L293.65-6.25Q293.65 0.75 285.2 0.75 276.75 0.75 276.75-6.25L276.75-6.25 276.75-10.5 280.25-10.5 280.25-6.05Q280.25-4.25 281.5-3.25 282.75-2.25 285.2-2.25 287.65-2.25 288.9-3.25 290.15-4.25 290.15-5.98 290.15-7.7 289.77-8.72 289.4-9.75 288.25-10.9L288.25-10.9 279.45-19.5Q277.9-21.05 277.32-22.53 276.75-24 276.75-26.25L276.75-26.25Q276.75-29.6 278.82-31.43 280.9-33.25 285.1-33.25L285.1-33.25Q293.15-33.25 293.15-26.25L293.15-26.25 293.15-22 289.65-22 289.65-26.45Q289.65-28.25 288.48-29.25 287.3-30.25 284.95-30.25 282.6-30.25 281.43-29.25 280.25-28.25 280.25-26.5 280.25-24.75 280.6-23.75 280.95-22.75 282.15-21.65L282.15-21.65 291.1-13.05Q292.55-11.45 293.1-9.98 293.65-8.5 293.65-6.25ZM314.9-6.25L314.9-6.25 314.9-9 318.4-9 318.4-6.25Q318.4-2.9 316.35-1.07 314.3 0.75 310.2 0.75 306.1 0.75 304-1.07 301.9-2.9 301.9-6.25L301.9-6.25 301.9-26.25Q301.9-29.6 303.95-31.43 306-33.25 310.1-33.25 314.2-33.25 316.3-31.43 318.4-29.6 318.4-26.25L318.4-26.25 318.4-15.25 305.4-15.25 305.4-6.25Q305.4-2.25 310.15-2.25 314.9-2.25 314.9-6.25ZM305.4-26.25L305.4-26.25 305.4-18.25 314.9-18.25 314.9-26.25Q314.9-30.25 310.15-30.25 305.4-30.25 305.4-26.25ZM340.3 0L327.65 0 327.65-32.5 331.15-32.5 331.15-3 340.3-3 340.3 0ZM349.8-15L349.8 0 346.3 0 346.3-32.5 360.05-32.5 360.05-29.5 349.8-29.5 349.8-18 358.05-18 358.05-15 349.8-15Z" opacity="1" transform="matrix(1,0,0,1,0,0)" fill="#000000" class="slogan-text-1" data-fill-palette-color="quaternary" id="text-1"></path></svg></g></svg></g></svg></g></svg></g><g transform="matrix(1,0,0,1,45.307658080213194,0)"><svg viewBox="0 0 122.5431250667307 98.55741387151394" height="98.55741387151394" width="122.5431250667307"><g><svg xmlns="http://www.w3.org/2000/svg" xmlns:xlink="http://www.w3.org/1999/xlink" version="1.1" x="0" y="0" viewBox="0 9.78600025177002 100.0003433227539 80.42699432373047" enable-background="new 0 0 100 100" xml:space="preserve" width="122.5431250667307" height="98.55741387151394" class="icon-icon-0" data-fill-palette-color="quaternary" id="icon-0"><path d="M49.942 52.994c13.552-0.488 27.103-0.977 40.653-1.465-2.527-4.177-3.159-7.831-7.989-8.461-7.229-0.94-14.458-1.883-21.688-2.826-14.023-1.827-28.05-3.654-42.075-5.48C20.101 36.792 39.724 53.361 49.942 52.994z" fill="#000000" data-fill-palette-color="quaternary"></path><path d="M0 9.786c4.391 7.257 26.615 23.072 32.953 23.886 17.33 2.231 34.657 4.46 51.986 6.688-3.393-5.607-4.18-9.35-10.312-10.959-8.904-2.341-17.812-4.683-26.717-7.023C31.94 18.182 15.97 13.984 0 9.786z" fill="#000000" data-fill-palette-color="quaternary"></path><path d="M63.108 66.207c10.413-2.219 20.826-4.439 31.241-6.66-2.028-3.346-2.034-5.359-5.827-5.189-6.158 0.273-12.314 0.549-18.471 0.822-11.343 0.506-22.686 1.014-34.028 1.518C37.298 58.064 54.94 67.947 63.108 66.207z" fill="#000000" data-fill-palette-color="quaternary"></path><path d="M87.682 90.213c5.725-3.719 7.262-7.721 10.519-13.807 3.651-6.824 1.257-7.844-2.821-14.596-0.417-0.688-5.842 0.232-6.453 0.904-0.745 0.818-0.248 5.455-0.294 6.496C88.315 76.211 87.998 83.213 87.682 90.213z" fill="#000000" data-fill-palette-color="quaternary"></path><path d="M86.35 63.447c-3.795 0.809-8.604 0.191-9.572 4.229-1.373 5.736-2.746 11.475-4.12 17.211C81.904 82.678 86.028 71.582 86.35 63.447z" fill="#000000" data-fill-palette-color="quaternary"></path><path d="M74.666 66.121c-9.148 1.953-8.956 4.611-12.879 13.18C68.007 78.711 73.811 71.941 74.666 66.121z" fill="#000000" data-fill-palette-color="quaternary"></path></svg></g></svg></g><g></g></svg></g></svg></g></svg></g></svg></g><defs></defs></svg><rect width="342.8515585177538" height="342.8515585177538" fill="none" stroke="none" visibility="hidden"></rect></g></svg></g></svg>